#!OML:ASF F:\VICON\USERDATA\INSTALL\rory3\rory3.ASF
:FULLY-SPECIFIED
:DEGREES
90
root 0.5084615691520478 17.68511711203603 43.10876503906716 -3.894218084205976 -4.601053505240104 -2.4818878280453927
lfemur -20.082322457172772 -3.457516154038718 -19.769068483680353
ltibia 30.401916578920947
lfoot -4.8817532801863255 -4.043887436594124
ltoes -0.8444240963753638
rfemur -0.7493955316472221 1.2983564002886432 25.02929775599629
rtibia 64.70988368332304
rfoot 15.259540479381068 -1.3002272514406181
rtoes 10.784756040512736
lowerback 9.442395837320426 2.2982280314880374 2.2309404570826343
upperback 0.2108485319133251 3.367519939366766 0.6494407818867678
thorax -5.0848503827574305 1.607778113066864 -1.1298038057675717
lowerneck -15.86495351181111 -3.258265149164802 -2.10330914246977
upperneck 19.83187146421309 -4.302578184763593 1.3345212095840646
head 8.872592253556881 -2.0284566415480363 0.2719892122404297
lclavicle -1.5656341487234765e-15 -1.278245514542823e-15
lhumerus -39.459534822770514 15.39925326418838 75.87459350867734
lradius 15.276980694075768
lwrist 0.5512884903374626
lhand -29.225923103502335 20.999811472034104
lfingers 7.125020000000055
lthumb -2.569345970785827 50.95201911387817
rclavicle -1.5656341487234765e-15 -1.278245514542823e-15
rhumerus -26.10883748810926 -16.541135725377856 -81.42060765270182
rradius 31.390404222204968
rwrist 1.1349728387491682
rhand -17.554712072486986 30.350548587245452
rfingers 7.125020000000055
rthumb 8.70029385018033 -6.137085881495706
91
root 0.5187621251996799 17.7424152123619 43.747240453700144 -4.427155844400808 -4.690490100078612 -1.4526678401033108
lfemur -17.2229851123449 -3.6483170343770466 -21.450256420015528
ltibia 30.588969338451967
lfoot -7.113708532489618 -2.807105626141973
ltoes -0.14381275293113394
rfemur -6.45373601979286 0.02321936473638342 23.351463592751905
rtibia 73.757425235897
rfoot 15.604439134322076 -3.9735983333827067
rtoes 14.720333462237498
lowerback 9.829147363079183 2.1011884280378497 1.2258798814172078
upperback 0.3265501099963111 2.999578273787577 0.5212424229956523
thorax -5.211095655609206 1.4464903679295409 -0.6447596753111194
lowerneck -15.865140995467549 -3.0598732343831885 -2.167522093675709
upperneck 19.786497171411654 -3.9999784443171005 1.2693776580572198
head 8.850487173348501 -1.895353666092961 0.29429587214959646
lclavicle -1.58572970633844e-15 -1.2938055234074482e-15
lhumerus -38.55094734313712 13.649486873940527 76.78448409609945
lradius 16.04147215633025
lwrist 1.9667790198602244
lhand -30.18992176353231 19.660761748736714
lfingers 7.125020000000055
lthumb -3.5003169892049018 49.611721884339595
rclavicle -1.58572970633844e-15 -1.2938055234074482e-15
rhumerus -26.864906960658153 -17.549973182008067 -81.22473908171865
rradius 30.249119978703746
rwrist 2.6874736684343263
rhand -17.470459987792147 30.388726851652052
rfingers 7.125020000000055
rthumb 8.781683433927013 -6.481554003192294
92
root 0.530916096753385 17.784613914171842 44.632358680403 -4.803785082595025 -4.514042376525104 -0.6806121800562417
lfemur -14.272105119586596 -3.8955638425485324 -22.683166794844247
ltibia 30.476250395797976
lfoot -9.240698092988184 -1.5177264404150046
ltoes 0.15385054666549003
rfemur -11.922726155258085 -1.2057876526928886 22.34374932073971
rtibia 80.22035034613437
rfoot 11.317491086180478 -6.2208394034919445
rtoes 15.551884208085893
lowerback 10.182112917871338 1.7825902610201143 0.4717765355372482
upperback 0.463382280055118 2.4937220063935857 0.5083860987079198
thorax -5.260298282578596 1.2145995593143204 -0.13067405625655681
lowerneck -15.776101809683965 -2.8530146091642483 -2.2690229658546004
upperneck 19.822150852769155 -3.6709754438312157 1.2080476628835994
head 8.840513886221892 -1.7559090528825452 0.3263689784506074
lclavicle -1.4445491571948652e-15 -1.1844889881290415e-15
lhumerus -37.03403330157331 11.73736047613432 77.72331805355664
lradius 16.971685303355606
lwrist 3.005467826704516
lhand -30.93126898026352 18.332726521718833
lfingers 7.125020000000055
lthumb -4.216287174082385 48.28536850612222
rclavicle -1.4445491571948652e-15 -1.1844889881290415e-15
rhumerus -27.32207912972179 -18.360381746931147 -80.95502735837847
rradius 29.448013504646404
rwrist 4.037728885193075
rhand -17.36635999281216 30.46055879793142
rfingers 7.125020000000055
rthumb 8.882165889271205 -6.687753761358699
93
root 0.5284800049894014 17.801390951821016 45.435407960807545 -5.0529249231384235 -4.107259793653965 -0.16284234013520726
lfemur -11.718021771650536 -4.180163693513206 -23.706062297706133
ltibia 30.122563314314803
lfoot -11.496975817685303 -0.4588161134415474
ltoes 0.18650009966089343
rfemur -17.22625031826188 -2.324221638522039 21.800199888311187
rtibia 82.92959971679656
rfoot 4.787620524746151 -7.426028542645291
rtoes 14.0107527857525
lowerback 10.441429076346985 1.3560764553226252 -0.1424186018031921
upperback 0.575222020191213 1.8553743982258468 0.5531049669182957
thorax -5.298530715129248 0.9168128262251304 0.3454122149557925
lowerneck -15.659281788794251 -2.706709085456316 -2.436086416649792
upperneck 19.868530356379626 -3.42253608515304 1.1739870938947758
head 8.833209981841165 -1.653486025403374 0.3709034082371603
lclavicle -1.5309643288953095e-15 -1.2514004948611927e-15
lhumerus -35.333666154416115 9.515024482307645 78.47026251291375
lradius 17.545122444039116
lwrist 3.4683296927158516
lhand -31.26127382768296 17.371709526568395
lfingers 7.125020000000055
lthumb -4.535020704287746 47.328360933640184
rclavicle -1.5309643288953095e-15 -1.2514004948611927e-15
rhumerus -27.99430935003767 -19.008399848856026 -80.88685811239714
rradius 28.606056831193015
rwrist 4.479314986177454
rhand -17.28759423420124 30.32467015614004
rfingers 7.125020000000055
rthumb 8.958166005726742 -6.87276592481586
94
root 0.521279036978424 17.795961878211315 46.405112929134866 -5.1032092163616145 -3.4854488038413267 0.2730659610466737
lfemur -9.225818665109076 -4.420072025003554 -24.582376608152014
ltibia 29.743756436831276
lfoot -13.667427434228042 0.4074371706286932
ltoes 0.2764077803176308
rfemur -21.93400817352751 -3.1565092760109352 21.57533415504679
rtibia 81.84700867092693
rfoot -1.5209390121647965 -7.783273735593806
rtoes 11.237823067276626
lowerback 10.659061769603406 0.896735349237585 -0.6867694233767538
upperback 0.6567187323786443 1.1772037550269263 0.6316044421482526
thorax -5.323365759372165 0.5989453307403233 0.839032155649709
lowerneck -15.577272444334511 -2.637333125680687 -2.670715072271704
upperneck 19.878228486213352 -3.2761023329977954 1.224031073309293
head 8.826577059235305 -1.5967243048676254 0.44331292567528247
lclavicle -1.5527900065788622e-15 -1.268300195786414e-15
lhumerus -33.421375207757976 7.068718078094776 79.10084510342035
lradius 18.580512569399666
lwrist 3.8752654871942127
lhand -31.221525135041652 17.084487512487684
lfingers 7.125020000000055
lthumb -4.496665228134259 47.04749288043316
rclavicle -1.5527900065788622e-15 -1.268300195786414e-15
rhumerus -28.798455663225276 -19.050652637281317 -80.90568419083385
rradius 28.421979838949333
rwrist 4.086656528636875
rhand -17.24313589056474 30.145468491350634
rfingers 7.125020000000055
rthumb 9.001086393400497 -6.990621002348431
95
root 0.5039158368408279 17.770040146969137 47.088565291061656 -4.9594409958004375 -2.8154476036040914 0.6791589150378563
lfemur -6.882003403528222 -4.55794201588255 -25.464290237909537
ltibia 28.660065585722734
lfoot -15.670066313714619 0.9497438856160514
ltoes 0.2687979270110752
rfemur -26.051184994482533 -3.6097311486157095 21.323416158460187
rtibia 76.64129429729596
rfoot -6.32989804061962 -8.195585724809938
rtoes 8.001319319724923
lowerback 10.791327692329192 0.43955408376017535 -1.3140643363363085
upperback 0.6979393271345775 0.49200457732733005 0.7063561955883102
thorax -5.3568808368599266 0.2800023304652305 1.3443438539210204
lowerneck -15.606657098765236 -2.654747024767186 -2.957109442121394
upperneck 19.708055066469726 -3.2537683652042393 1.3453915936412986
head 8.783944154934307 -1.5916786350541403 0.5358049164271205
lclavicle -1.7653591139848576e-15 -1.432893106173459e-15
lhumerus -31.523949416053938 4.373086119333078 79.51118017932176
lradius 19.616993383777924
lwrist 4.325423420451784
lhand -31.05923788386078 17.12419968676443
lfingers 7.125020000000054
lthumb -4.339954482396893 47.09443126317936
rclavicle -1.7653591139848576e-15 -1.432893106173459e-15
rhumerus -29.821774517329594 -18.692178918267796 -81.14492785349717
rradius 28.293705643726057
rwrist 3.066076286152539
rhand -17.254531780071815 29.969846207597296
rfingers 7.125020000000054
rthumb 8.990132594247422 -7.138102728995539
96
root 0.4900111264362846 17.73926478466219 47.75306542298524 -4.550472863089653 -2.1186715826853013 1.1406547473904594
lfemur -4.225717312553414 -4.468392879731405 -26.243207094378565
ltibia 26.793228355386816
lfoot -17.11803179748444 1.193391577341182
ltoes 0.14487265903698265
rfemur -29.078909121178825 -3.416362866216106 20.86403372887135
rtibia 67.81353064138239
rfoot -9.055335476563851 -9.363209204199556
rtoes 5.112329395480506
lowerback 10.824282785580715 0.03027809987922725 -1.9948219285607245
upperback 0.7116473437760622 -0.13355928690742702 0.7779663226833982
thorax -5.342701527484947 -0.009413264430948975 1.8893768778084428
lowerneck -15.723005699194605 -2.7122313745842805 -3.232227346657109
upperneck 19.42300741719994 -3.29580504190085 1.5305392911350093
head 8.720455357455673 -1.6107642726431481 0.6401593875217334
lclavicle -1.8571494686676923e-15 -1.5039666790347274e-15
lhumerus -29.4349919312242 1.7401457828947864 79.76101702903674
lradius 21.11092361208113
lwrist 5.1049586048985525
lhand -30.86345175632189 17.500624140889478
lfingers 7.125020000000054
lthumb -4.1508876908858205 47.47678574245596
rclavicle -1.8571494686676923e-15 -1.5039666790347274e-15
rhumerus -30.7732945789401 -18.01286793508875 -81.36450412235143
rradius 28.49833386998374
rwrist 2.074816180357181
rhand -17.25051885869654 29.955115319318747
rfingers 7.125020000000054
rthumb 8.99401983444847 -7.122901139137217
97
root 0.4716090010317051 17.706715201613466 48.13835494429401 -3.9285938604692996 -1.4933818936807053 1.6029168388854056
lfemur -1.3627080073968436 -4.190910682937203 -26.923454051996448
ltibia 23.656981532189285
lfoot -18.09142338349276 1.075597725324954
ltoes -0.3676323169271205
rfemur -31.068263705881677 -2.3436700256502365 19.95576111129771
rtibia 55.61433844211817
rfoot -10.177690016383611 -11.60432540278735
rtoes 2.764912655532223
lowerback 10.668575537164013 -0.34242932877512267 -2.743602818833401
upperback 0.685999392664925 -0.7130622774154945 0.8260309867166822
thorax -5.27938893297925 -0.2762093482183423 2.415045184297655
lowerneck -15.895397852170522 -2.7803679942019492 -3.442637159500774
upperneck 19.064533241489684 -3.372694014850303 1.7096364291208275
head 8.640132120869588 -1.6392011780903388 0.7285360035937082
lclavicle -2.074722388030114e-15 -1.6724340323693283e-15
lhumerus -27.344142297086407 -0.7010137642512837 79.73388522142112
lradius 22.391520862176066
lwrist 5.944269465656573
lhand -30.71143627118764 17.995006035601794
lfingers 7.125020000000054
lthumb -4.00410155081487 47.973416403239206
rclavicle -2.074722388030114e-15 -1.6724340323693283e-15
rhumerus -31.74787743453141 -17.571365844952652 -81.58941615725277
rradius 28.24452391370037
rwrist 1.3330413277649216
rhand -17.217534742319636 29.953683852758143
rfingers 7.125020000000054
rthumb 9.025811057332627 -6.947841847106928
